<?xml version="1.0" encoding="UTF-8"?>
<svg id="KM_x5F_FULLOGO_x5F_WHITE" xmlns="http://www.w3.org/2000/svg" viewBox="0 0 1858.895 745.802">
  <g>
    <path fill="currentColor" d="M390.613,198.898v348.635h1.488V198.898h-1.488Z"/>
    <polygon fill="currentColor" points="594.334 547.534 514.649 547.534 470.299 246.284 470.299 547.534 392.101 547.534 392.101 198.898 546.54 198.898 590.848 522.233 594.334 547.534"/>
    <polygon fill="currentColor" points="789.084 198.898 789.084 547.534 709.398 547.534 709.398 247.388 664.58 547.534 594.334 547.534 590.848 522.233 635.665 198.898 789.084 198.898"/>
    <path fill="currentColor" d="M112.596,198.888h84.672v348.661h-84.672V198.888Z"/>
    <polygon fill="currentColor" points="392.101 198.898 392.101 547.534 390.613 547.534 197.267 373.237 390.613 198.898 392.101 198.898"/>
  </g>
  <g>
    <path fill="currentColor" d="M881.183,200.385h36.224v73.086l-9.802-3.621,58.6-69.465h44.959l-93.757,108.885v40.273h-36.224v-149.158ZM932.751,286.471l24.504-28.341,60.303,91.413h-43.468l-41.338-63.072Z"/>
    <path fill="currentColor" d="M1064.222,200.385h64.351l46.666,149.158h-38.569l-44.536-149.158h6.393l-44.534,149.158h-36.438l46.666-149.158ZM1055.911,288.176h80.972v31.962h-80.972v-31.962Z"/>
    <path fill="currentColor" d="M1185.888,200.385h34.094v149.158h-34.094v-149.158ZM1218.492,200.385h34.092l20.457,149.158h-2.984l20.669-149.158h33.029l-20.669,149.158h-64.14l-20.455-149.158ZM1322.263,200.385h34.094v149.158h-34.094v-149.158Z"/>
    <path fill="currentColor" d="M1377.664,200.385h36.224v149.158h-36.224v-149.158Z"/>
    <path fill="currentColor" d="M1435.195,200.385h70.105l32.39,149.158h-2.344v-149.158h36.224v149.158h-70.105l-32.388-149.158h2.342v149.158h-36.224v-149.158Z"/>
    <path fill="currentColor" d="M1599.057,236.076c6.958-11.72,16.44-20.951,28.447-27.701,12.003-6.746,25.32-10.122,39.953-10.122s27.946,3.376,39.953,10.122c12.003,6.75,21.485,15.981,28.447,27.701,6.958,11.72,10.441,24.685,10.441,38.888s-3.484,27.168-10.441,38.888c-6.962,11.718-16.444,20.956-28.447,27.699-12.007,6.75-25.324,10.122-39.953,10.122s-27.951-3.372-39.953-10.122c-12.007-6.744-21.489-15.981-28.447-27.699-6.962-11.72-10.441-24.683-10.441-38.888s3.48-27.168,10.441-38.888ZM1631.552,297.018c3.621,6.605,8.594,11.826,14.916,15.661,6.318,3.835,13.317,5.753,20.989,5.753s14.665-1.918,20.989-5.753c6.318-3.835,11.293-9.057,14.916-15.661,3.621-6.607,5.434-13.957,5.434-22.054s-1.813-15.449-5.434-22.054c-3.623-6.607-8.598-11.826-14.916-15.663-6.324-3.835-13.319-5.753-20.989-5.753s-14.671,1.918-20.989,5.753c-6.322,3.837-11.295,9.057-14.916,15.663-3.623,6.605-5.434,13.957-5.434,22.054s1.81,15.447,5.434,22.054Z"/>
    <path fill="currentColor" d="M881.183,397.686h34.094v149.158h-34.094v-149.158ZM913.787,397.686h34.092l20.457,149.158h-2.984l20.669-149.158h33.029l-20.669,149.158h-64.14l-20.455-149.158ZM1017.558,397.686h34.094v149.158h-34.094v-149.158Z"/>
    <path fill="currentColor" d="M1072.959,397.686h102.283v31.962h-66.058v26.636h63.926v31.962h-63.926v26.636h66.058v31.962h-102.283v-149.158Z"/>
    <path fill="currentColor" d="M1194.416,397.686h62.009c14.488,0,27.556,3.268,39.206,9.8,11.648,6.536,20.777,15.487,27.382,26.85,6.607,11.365,9.908,24.008,9.908,37.929s-3.301,26.566-9.908,37.929c-6.605,11.365-15.734,20.316-27.382,26.848-11.65,6.536-24.718,9.802-39.206,9.802h-62.009v-149.158ZM1275.39,509.448c6.391-3.623,11.326-8.664,14.808-15.13,3.48-6.463,5.222-13.813,5.222-22.054s-1.742-15.589-5.222-22.054c-3.482-6.463-8.417-11.507-14.808-15.13-6.393-3.623-13.782-5.434-22.162-5.434h-22.588v85.234h22.588c8.38,0,15.769-1.813,22.162-5.434Z"/>
    <path fill="currentColor" d="M1349.964,397.686h36.224v149.158h-36.224v-149.158Z"/>
    <path fill="currentColor" d="M1443.508,397.686h64.351l46.666,149.158h-38.569l-44.536-149.158h6.393l-44.534,149.158h-36.438l46.666-149.158ZM1435.197,485.476h80.972v31.962h-80.972v-31.962Z"/>
  </g>
</svg>