<?xml version="1.0" encoding="UTF-8"?>
<svg id="KM_x5F_IMAGOTYPE_x5F_BLACK" xmlns="http://www.w3.org/2000/svg" viewBox="0 0 1080 645.311">
  <path fill="currentColor" d="M462.259,97.642v450.02h1.921V97.642h-1.921Z"/>
  <polygon fill="currentColor" points="725.223 547.662 622.365 547.662 565.117 158.808 565.117 547.662 464.18 547.662 464.18 97.642 663.53 97.642 720.722 515.004 725.223 547.662"/>
  <polygon fill="currentColor" points="976.606 97.642 976.606 547.662 873.748 547.662 873.748 160.233 815.897 547.662 725.223 547.662 720.722 515.004 778.573 97.642 976.606 97.642"/>
  <path fill="currentColor" d="M103.394,97.629h109.295v450.053h-109.295V97.629Z"/>
  <polygon fill="currentColor" points="464.18 97.642 464.18 547.662 462.259 547.662 212.687 322.679 462.259 97.642 464.18 97.642"/>
</svg>