<?xml version="1.0" encoding="UTF-8"?>
<svg id="KM_x5F_LOGOTYPE_x5F_WHITE" xmlns="http://www.w3.org/2000/svg" viewBox="0 0 2534.533 430.634">
  <defs>
    <style>
      .cls-1 {
        stroke-miterlimit: 10;
        stroke-width: 4px;
      }
    </style>
  </defs>
  <path class="cls-1" fill="currentColor" color="currentColor" d="M100.5,103.69h35.083v120.236l-9.569-3.824,106.206-116.412h43.697l-140.334,154.047v69.208h-35.083V103.69ZM166.201,218.827l23.919-27.115,98.552,135.232h-42.737l-79.734-108.118Z"/>
  <path class="cls-1" fill="currentColor" color="currentColor" d="M374.786,103.69h62.194l81.646,223.255h-37.632l-79.734-223.255h7.334l-80.052,223.255h-35.723l81.967-223.255ZM341.618,241.471h128.53v31.573h-128.53v-31.573Z"/>
  <path class="cls-1" fill="currentColor" color="currentColor" d="M540.314,103.69h33.488v223.255h-33.488V103.69ZM571.89,103.69h34.125l55.175,223.255h-4.784l55.815-223.255h32.851l-55.495,223.255h-62.192l-55.495-223.255ZM743.157,103.69h33.171v223.255h-33.171V103.69Z"/>
  <path class="cls-1" fill="currentColor" color="currentColor" d="M814.28,103.69h35.083v223.255h-35.083V103.69Z"/>
  <path class="cls-1" fill="currentColor" color="currentColor" d="M887.312,103.69h68.571l92.493,221.663h-2.232V103.69h35.083v223.255h-68.571l-92.176-221.663h1.915v221.663h-35.083V103.69Z"/>
  <path class="cls-1" fill="currentColor" color="currentColor" d="M1127.792,157.111c10.203-17.54,24.236-31.36,42.099-41.465,17.86-10.094,37.523-15.146,59.002-15.146,21.687,0,41.462,5.053,59.322,15.146,17.86,10.105,31.893,23.925,42.099,41.465s15.311,36.949,15.311,58.203-5.105,40.669-15.311,58.209-24.239,31.365-42.099,41.459c-17.86,10.105-37.635,15.152-59.322,15.152-21.479,0-41.142-5.047-59.002-15.152-17.863-10.094-31.896-23.919-42.099-41.459-10.206-17.54-15.311-36.943-15.311-58.209s5.105-40.663,15.311-58.203ZM1159.365,257.096c7.017,12.551,16.634,22.437,28.865,29.664,12.222,7.227,25.883,10.844,40.983,10.844,14.881,0,28.435-3.616,40.663-10.844,12.225-7.227,21.849-17.113,28.865-29.664,7.017-12.545,10.523-26.469,10.523-41.782s-3.507-29.231-10.523-41.776-16.64-22.431-28.865-29.664c-12.228-7.227-25.782-10.844-40.663-10.844s-28.496,3.616-40.825,10.844c-12.334,7.233-22.007,17.119-29.024,29.664s-10.523,26.469-10.523,41.776,3.507,29.237,10.523,41.782Z"/>
  <path class="cls-1" fill="currentColor" color="currentColor" d="M1472.555,103.69h33.488v223.255h-33.488V103.69ZM1504.131,103.69h34.125l55.175,223.255h-4.784l55.815-223.255h32.851l-55.495,223.255h-62.192l-55.495-223.255ZM1675.398,103.69h33.171v223.255h-33.171V103.69Z"/>
  <path class="cls-1" fill="currentColor" color="currentColor" d="M1746.521,103.69h142.883v31.573h-107.801v64.427h104.611v31.256h-104.611v64.427h107.801v31.573h-142.883V103.69Z"/>
  <path class="cls-1" fill="currentColor" color="currentColor" d="M1922.569,103.69h83.561c21.26,0,40.554,4.891,57.886,14.668,17.329,9.782,30.939,23.181,40.825,40.19,9.889,17.009,14.832,35.934,14.832,56.767s-4.943,39.763-14.832,56.773c-9.886,17.015-23.495,30.408-40.825,40.184-17.332,9.782-36.626,14.673-57.886,14.673h-83.561V103.69ZM2044.723,285.007c12.118-6.91,21.632-16.479,28.545-28.706,6.907-12.222,10.365-25.886,10.365-40.986s-3.458-28.753-10.365-40.98c-6.913-12.228-16.427-21.791-28.545-28.706-12.121-6.904-25.834-10.365-41.145-10.365h-45.926v160.109h45.926c15.311,0,29.024-3.455,41.145-10.365Z"/>
  <path class="cls-1" fill="currentColor" color="currentColor" d="M2150.926,103.69h35.083v223.255h-35.083V103.69Z"/>
  <path class="cls-1" fill="currentColor" color="currentColor" d="M2289.977,103.69h62.194l81.646,223.255h-37.632l-79.734-223.255h7.334l-80.052,223.255h-35.723l81.967-223.255ZM2256.809,241.471h128.53v31.573h-128.53v-31.573Z"/>
</svg>